<?xml version="1.0" ?><!DOCTYPE svg  PUBLIC '-//W3C//DTD SVG 1.1//EN'  'http://www.w3.org/Graphics/SVG/1.1/DTD/svg11.dtd'><svg enable-background="new 0 0 100 100" height="100px" id="Layer_1" version="1.1" viewBox="0 0 100 100" width="100px" xml:space="preserve" xmlns="http://www.w3.org/2000/svg" xmlns:xlink="http://www.w3.org/1999/xlink"><g><circle cx="50" cy="49.999" fill="#7C519B" r="45"/><g><path d="M49.758,31.413c0.285-0.262,0.487-0.299,1.48-0.268c0.521,0.018,1.279,0.078,1.695,0.127    c2.098,0.262,3.795,0.768,5.653,1.674c1.829,0.896,3.001,1.742,4.55,3.283c1.449,1.455,2.255,2.557,3.109,4.268    c1.189,2.387,1.866,5.225,1.982,8.348c0.042,1.066,0.012,1.305-0.231,1.607c-0.464,0.592-1.483,0.494-1.829-0.17    c-0.112-0.219-0.143-0.408-0.178-1.262c-0.061-1.309-0.152-2.154-0.336-3.166c-0.72-3.963-2.621-7.129-5.658-9.4    c-2.532-1.898-5.147-2.826-8.573-3.025c-1.16-0.066-1.361-0.109-1.623-0.311C49.312,32.733,49.287,31.833,49.758,31.413z     M57.026,39.255c-1.226-0.73-3.037-1.271-4.688-1.406c-0.6-0.049-0.928-0.17-1.153-0.432c-0.348-0.396-0.384-0.932-0.092-1.377    c0.317-0.492,0.804-0.572,2.261-0.354c3.702,0.543,6.569,2.26,8.446,5.049c1.058,1.57,1.715,3.416,1.941,5.395    c0.077,0.725,0.077,2.045-0.009,2.264c-0.077,0.207-0.335,0.488-0.554,0.604c-0.237,0.121-0.745,0.109-1.025-0.037    c-0.468-0.236-0.609-0.615-0.609-1.637c0-1.578-0.408-3.24-1.115-4.529C59.623,41.319,58.453,40.103,57.026,39.255z     M59.087,47.372c-0.359,0.328-1.025,0.34-1.428,0.031c-0.291-0.221-0.384-0.453-0.451-1.078c-0.078-0.834-0.224-1.42-0.476-1.961    c-0.536-1.15-1.481-1.748-3.079-1.943c-0.749-0.09-0.976-0.176-1.219-0.463c-0.446-0.529-0.274-1.387,0.342-1.705    c0.231-0.113,0.327-0.127,0.841-0.096c0.316,0.018,0.786,0.072,1.036,0.127c1.201,0.256,2.123,0.713,2.908,1.449    c1.014,0.957,1.569,2.113,1.813,3.775C59.539,46.593,59.471,47.019,59.087,47.372z M68.196,63.368    c-0.449,1.162-2.206,3.342-3.432,4.273c-1.109,0.84-1.897,1.162-2.935,1.213c-0.852,0.041-1.206-0.033-2.297-0.482    c-8.562-3.525-15.399-8.785-20.827-16.014c-2.834-3.775-4.993-7.689-6.471-11.752c-0.857-2.367-0.899-3.396-0.193-4.609    c0.306-0.51,1.603-1.777,2.551-2.482c1.573-1.17,2.299-1.602,2.876-1.725c0.398-0.086,1.086-0.018,1.525,0.141    c0.212,0.072,0.544,0.244,0.731,0.365c1.16,0.768,4.385,4.889,5.439,6.947c0.604,1.176,0.806,2.045,0.616,2.691    c-0.196,0.693-0.52,1.059-1.963,2.223c-0.58,0.469-1.124,0.949-1.208,1.078c-0.22,0.316-0.397,0.938-0.397,1.375    c0.006,1.018,0.666,2.861,1.531,4.281c0.672,1.102,1.871,2.514,3.062,3.598c1.396,1.279,2.627,2.15,4.019,2.838    c1.785,0.889,2.878,1.113,3.676,0.742c0.202-0.09,0.416-0.213,0.481-0.268c0.061-0.055,0.53-0.627,1.044-1.26    c0.987-1.242,1.214-1.443,1.89-1.674c0.861-0.293,1.738-0.215,2.622,0.236c0.672,0.348,2.135,1.256,3.079,1.912    c1.245,0.871,3.904,3.039,4.264,3.471C68.515,61.267,68.625,62.265,68.196,63.368z" fill="#FFFFFF"/></g></g></svg>