<?xml version="1.0" encoding="utf-8"?>
<!-- Generator: Adobe Illustrator 14.0.0, SVG Export Plug-In . SVG Version: 6.00 Build 43363)  -->
<!DOCTYPE svg PUBLIC "-//W3C//DTD SVG 1.1//EN" "http://www.w3.org/Graphics/SVG/1.1/DTD/svg11.dtd">
<svg version="1.1"
	 id="subway" xmlns:inkscape="http://www.inkscape.org/namespaces/inkscape" xmlns:rdf="http://www.w3.org/1999/02/22-rdf-syntax-ns#" xmlns:cc="http://creativecommons.org/ns#" xmlns:dc="http://purl.org/dc/elements/1.1/" xmlns:sodipodi="http://sodipodi.sourceforge.net/DTD/sodipodi-0.dtd" sodipodi:docname="Subway.svg" inkscape:version="0.91 r13725"
	 xmlns="http://www.w3.org/2000/svg" xmlns:xlink="http://www.w3.org/1999/xlink" x="0px" y="0px" width="400px" height="300px"
	 viewBox="0 0 400 300" enable-background="new 0 0 400 300" xml:space="preserve">
<path id="s" fill="#FFCB08" d="M90.693,149.683c0-0.149-0.715-1.287-0.936-1.488c-0.087-0.079-0.468-0.551-0.847-1.046
	c-0.379-0.496-0.82-0.973-0.982-1.059c-0.284-0.152-0.531-0.353-1.453-1.172c-0.24-0.215-0.672-0.5-0.962-0.636
	c-0.289-0.136-0.75-0.433-1.027-0.659c-0.275-0.227-0.554-0.412-0.619-0.412c-0.063,0-0.453-0.227-0.867-0.505
	c-0.413-0.278-0.839-0.506-0.949-0.506c-0.232,0-1.371-0.599-1.441-0.758c-0.026-0.06-0.141-0.108-0.253-0.108
	c-0.111,0-0.205-0.065-0.205-0.144c0-0.08-0.104-0.145-0.233-0.145s-0.601-0.185-1.047-0.409c-2.363-1.189-3.568-1.767-3.679-1.762
	c-0.066,0.002-0.299-0.121-0.514-0.274c-0.215-0.153-0.583-0.326-0.816-0.382c-0.233-0.057-1.09-0.467-1.904-0.912
	c-0.814-0.445-1.758-0.95-2.095-1.122c-0.336-0.172-0.805-0.514-1.04-0.761c-0.39-0.411-0.427-0.535-0.427-1.478
	c0-0.988,0.021-1.045,0.478-1.427c0.262-0.219,0.682-0.428,0.932-0.466c0.251-0.037,4.745-0.034,9.986,0.007l9.53,0.075l-0.027-6.05
	l-0.029-6.05l-1.705-0.101c-0.937-0.056-5.668-0.12-10.512-0.144c-11.175-0.055-11.819,0.019-15.522,1.796
	c-0.834,0.401-1.809,0.936-2.167,1.19c-1.069,0.762-3.03,2.691-3.03,2.981c0,0.148-0.06,0.27-0.131,0.27
	c-0.343,0-1.888,2.896-1.891,3.545c0,0.243-0.057,0.502-0.125,0.577c-0.456,0.504-0.6,4.896-0.222,6.779
	c0.127,0.636,0.289,1.448,0.36,1.806c0.136,0.678,0.723,1.905,1.396,2.916c0.217,0.327,0.459,0.697,0.539,0.824
	c0.356,0.575,2.75,2.778,3.76,3.465c1.409,0.956,3.119,1.996,3.558,2.164c0.185,0.071,0.921,0.444,1.636,0.832
	s1.592,0.825,1.948,0.976c0.358,0.149,1.561,0.709,2.673,1.241c5.942,2.851,6.453,3.146,6.959,4.007
	c0.52,0.889,0.535,1.813,0.044,2.537c-0.199,0.292-0.471,0.53-0.605,0.531c-0.135,0-0.291,0.076-0.348,0.168
	c-0.107,0.173-12.358,0.094-18.434-0.118l-2.707-0.095v-3.153c0-2.707-0.03-3.153-0.217-3.153c-0.119,0-0.216,0.063-0.216,0.145
	c0,0.079-0.074,0.145-0.165,0.145c-0.179,0-1.712,1.25-1.9,1.549c-0.063,0.102-0.313,0.287-0.554,0.41
	c-0.241,0.125-0.807,0.565-1.257,0.979c-0.451,0.415-1.123,0.962-1.492,1.216c-0.37,0.254-0.693,0.514-0.721,0.575
	c-0.073,0.17-1.494,1.335-1.626,1.335c-0.064,0-0.32,0.216-0.569,0.479c-0.249,0.266-1.134,1.027-1.968,1.697
	c-0.833,0.669-1.646,1.348-1.804,1.506c-0.158,0.158-0.526,0.45-0.817,0.649c-0.292,0.198-0.896,0.709-1.346,1.135l-0.814,0.772
	l0.911,0.848c0.5,0.466,0.957,0.85,1.013,0.852c0.058,0.002,0.609,0.459,1.228,1.014c0.618,0.558,1.201,1.012,1.296,1.012
	s0.257,0.113,0.362,0.254c0.104,0.141,0.544,0.547,0.979,0.903c0.437,0.356,0.923,0.756,1.083,0.886
	c0.16,0.133,0.707,0.586,1.214,1.012c0.508,0.426,1.201,0.98,1.54,1.234c0.339,0.253,0.841,0.688,1.116,0.961
	c0.275,0.275,0.751,0.663,1.06,0.861c0.309,0.199,0.949,0.726,1.427,1.166c0.476,0.441,0.941,0.806,1.036,0.808
	c0.093,0,0.319,0.192,0.505,0.427c0.652,0.825,0.688,0.686,0.729-2.844l0.039-3.285l0.65,0.018c0.356,0.011,4.108,0.031,8.338,0.05
	c5.354,0.021,7.688,0.077,7.688,0.187c0,0.176,4.494,0.057,6.786-0.183c1.798-0.187,4.063-0.631,4.404-0.862
	c0.08-0.055,0.534-0.252,1.011-0.439c0.478-0.188,0.899-0.379,0.938-0.428c0.14-0.168,1.174-0.725,1.35-0.725
	c0.1,0,0.405-0.211,0.683-0.471c0.276-0.256,0.752-0.662,1.056-0.9c0.626-0.49,2.194-2.451,2.656-3.32
	c0.468-0.883,1.177-3.115,1.41-4.441c0.469-2.66,0.168-6.172-0.712-8.327C90.863,150.221,90.693,149.75,90.693,149.683z"/>
<path id="u" fill="#FFCB08" d="M121.016,119.821v18.256c0,11.252-0.053,18.396-0.138,18.62c-0.179,0.471-1.14,1.533-1.385,1.533
	c-0.104,0-0.276,0.088-0.384,0.193c-0.504,0.504-1.732,0.744-3.798,0.744h-2.021l-1.146-0.557c-1.199-0.581-1.53-0.895-2.066-1.955
	l-0.325-0.643v-18.095v-18.097h-7.513H94.73l0.047,19.602c0.043,17.442,0.073,19.68,0.278,20.325
	c0.429,1.346,0.879,2.44,1.292,3.141c0.226,0.385,0.411,0.763,0.411,0.841c0,0.504,3.775,4.465,4.256,4.465
	c0.053,0,0.369,0.181,0.702,0.397c1.625,1.064,2.249,1.369,4.016,1.959c1.939,0.647,3.711,1.076,5.465,1.32l0,0
	c1.878,0.264,6.508,0.266,8.23,0.006c2.528-0.381,4.388-0.854,5.726-1.455c0.25-0.113,0.564-0.205,0.698-0.205
	c0.288,0,2.62-1.221,3.035-1.588c0.159-0.142,0.526-0.377,0.817-0.525c0.69-0.354,3.115-2.604,3.402-3.157
	c0.124-0.237,0.364-0.575,0.535-0.748c0.416-0.42,1.406-2.243,1.624-2.987c0.096-0.328,0.339-1.182,0.539-1.896l0.364-1.3
	l0.005-19.097l0.005-19.096h-7.58L121.016,119.821L121.016,119.821z"/>
<path id="b" fill="#FFCB08" d="M181.953,150.219c-0.062-0.08-0.193-0.404-0.293-0.723c-0.274-0.867-1.998-2.951-3.229-3.902
	c-0.306-0.235-0.709-0.569-0.895-0.74c-0.187-0.171-0.603-0.428-0.924-0.568c-0.32-0.143-0.584-0.299-0.584-0.349
	c0-0.088,0.802-0.721,0.914-0.721c0.108,0,2.407-2.271,2.407-2.377c0-0.058,0.122-0.277,0.272-0.488
	c0.427-0.602,1.26-2.227,1.46-2.85c0.101-0.312,0.255-0.657,0.344-0.769c0.107-0.135,0.158-1.126,0.151-2.96
	c-0.01-2.567-0.037-2.841-0.393-3.96c-0.438-1.38-1.45-3.489-1.979-4.128c-0.933-1.124-2.029-2.196-2.853-2.784
	c-1.143-0.817-3.146-1.795-4.655-2.272c-2.32-0.733-3.889-0.804-17.921-0.804H140.94v25.558v25.559l13.609-0.005
	c13.837-0.005,15.15-0.05,16.855-0.563c0.278-0.084,0.684-0.154,0.899-0.154c0.383,0,1.744-0.549,2.929-1.182
	c0.318-0.17,0.934-0.498,1.367-0.73c0.678-0.361,1.505-1.057,2.81-2.357c0.393-0.393,1.272-1.623,1.72-2.402
	c0.385-0.674,1.259-3.178,1.551-4.444c0.246-1.073,0.376-3.869,0.24-5.198C182.816,152.885,182.2,150.539,181.953,150.219z
	 M155.813,135.563v-4.641l4.079,0.046c4.426,0.05,4.394,0.044,5.439,0.925c1.125,0.946,1.563,3.126,1.086,5.402
	c-0.166,0.795-1.144,2.119-1.838,2.49c-0.583,0.312-0.778,0.327-4.688,0.372l-4.079,0.045L155.813,135.563L155.813,135.563z
	 M167.231,157.484c-0.19,0.411-0.438,0.748-0.546,0.748c-0.106,0-0.23,0.091-0.274,0.204c-0.125,0.323-1.078,0.886-1.818,1.069
	c-0.437,0.108-2.12,0.17-4.729,0.17h-4.051v-4.83c0-2.655,0.049-4.848,0.108-4.872c0.059-0.024,2.192-0.013,4.74,0.026l4.632,0.072
	l0.606,0.402c0.335,0.222,0.85,0.773,1.144,1.229l0.534,0.824l0.002,2.104C167.582,156.561,167.552,156.801,167.231,157.484z"/>
<path id="w" fill="#009743" d="M232.86,156.451l-0.33,0.561c-0.431,0.734-0.431,0.734-1.412,1.101c-0.531,0.2-1.232,0.31-1.976,0.31
	c-1.322,0-2.574-0.334-3.113-0.828c-0.138-0.129-0.392-0.484-0.521-0.771c-0.22-0.474-0.229-2.27-0.23-18.47
	c-0.002-8.28-0.022-18.204-0.119-18.457c-0.193-0.504-0.193-0.504-7.839-0.504h-7.778v18.518c0,13.023-0.067,18.088-0.124,18.458
	c-0.405,1.412-1.843,1.881-2.976,2.024c-1.028,0.132-2.37-0.032-2.94-0.317c-0.093-0.046-0.552-0.261-0.748-0.262
	c-0.109-0.053-0.438-0.424-0.701-1.049c-0.234-0.555-0.244-2.092-0.277-18.532l-0.036-18.227l-0.007-0.196l-0.126-0.127
	c-0.232-0.235-0.289-0.291-7.732-0.291h-7.867v21.043c-0.001,18.201-0.001,18.201,0.83,20.717l0.082,0.246
	c0.811,2.475,1.873,4.156,3.786,6.004c0.997,0.965,1.269,1.166,1.422,1.21c0.114,0.062,0.459,0.274,0.9,0.576
	c1.281,0.878,1.569,1.017,3.418,1.64c1.844,0.623,3.101,0.934,4.802,1.188c0.844,0.128,2.251,0.203,3.764,0.203
	c1.521,0,2.867-0.076,3.601-0.205c1.877-0.328,4.981-1.322,6.039-1.936c0.274-0.158,0.809-0.5,1.185-0.761
	c0.658-0.456,1.291-0.894,1.616-0.856c0.154,0.086,0.271,0.17,0.277,0.17c0,0,0,0,0-0.002c0.271,0.328,3.047,1.871,3.416,1.951
	c0.175,0.039,0.478,0.135,0.647,0.207c0.805,0.34,2.493,0.844,3.687,1.102c0.851,0.184,2.504,0.293,4.427,0.293
	c1.905,0,3.581-0.107,4.484-0.287c1.409-0.281,3.094-0.744,3.836-1.055c0.229-0.096,0.668-0.252,0.975-0.349
	c0.354-0.11,0.875-0.354,1.186-0.553l1.51-0.958c0.573-0.363,1.521-1.128,2.112-1.703c0.832-0.813,2.783-3.043,2.787-3.658
	c0.013-0.072,0.127-0.363,0.309-0.68c0.44-0.773,1.001-2.34,1.36-3.811c0.24-0.979,0.265-2.49,0.312-20.21l0.051-19.532
	l-15.814,0.079L232.86,156.451z"/>
<path id="a" fill="#009743" d="M292.013,125.881c-0.112-0.112-0.467-0.576-0.799-1.064c-0.313-0.461-0.772-1.022-1.046-1.202
	c-0.146-0.096-0.616-0.494-1.06-0.913c-0.087-0.082-0.856-0.807-1.229-0.925c-0.082-0.028-0.439-0.225-0.832-0.503
	c-0.892-0.635-2.406-1.394-3.309-1.656c-0.361-0.104-1.209-0.362-1.88-0.57c-3.098-0.962-7.025-1.375-10.525-1.103
	c-2.898,0.226-5.741,0.815-7.42,1.537c-0.279,0.121-0.553,0.192-0.613,0.196c-0.519,0-2.782,1.252-3.382,1.687
	c-0.279,0.202-0.515,0.326-0.495,0.335c-0.229,0-0.552,0.198-0.963,0.59c-0.269,0.256-0.888,0.812-1.376,1.234
	c-0.854,0.736-1.017,0.993-1.046,1.147c-0.054,0.093-0.215,0.329-0.465,0.629c-0.969,1.169-1.335,1.831-1.955,3.542l-0.145,0.391
	c-0.912,2.469-0.912,2.469-0.909,19.894v22.238h15.734v-14.727h10.545v14.729h15.735v-19.311c0-16.437-0.031-19.084-0.231-20.229
	C294.018,129.919,292.825,126.692,292.013,125.881z M278.848,134.788v9.15h-10.553l0.078-9.648l0.346-0.712
	c0.417-0.862,0.532-0.97,1.538-1.438c1.106-0.515,2.137-0.659,3.879-0.597c1.38,0.052,1.592,0.095,2.511,0.51
	c1.319,0.593,1.458,0.728,1.855,1.802L278.848,134.788z"/>
<path id="y" fill="#009743" d="M361.683,124.628c-0.938-0.881-1.258-1.023-1.407-1.046c-0.04-0.025-0.118-0.088-0.186-0.171
	c-0.193-0.24-0.763-0.735-1.199-1.079c-0.507-0.399-0.993-0.803-1.127-0.928c-0.185-0.173-1.097-0.925-1.86-1.544
	c-0.915-0.741-1.743-1.451-1.939-1.649c-0.367-0.368-0.586-0.491-0.719-0.532c-0.125-0.086-0.513-0.4-1.075-0.918
	c-0.905-0.833-1.224-1.049-1.389-1.105c-0.104-0.069-0.41-0.313-0.827-0.706c-0.498-0.468-1.153-1.005-1.493-1.221
	c-0.299-0.19-0.629-0.465-0.726-0.584c-0.07-0.086-0.215-0.266-0.458-0.266c-0.558,0-0.558,0.064-0.561,3.441l-0.002,2.782
	l-5.383,0.002c-5.632,0.003-6.379,0.045-8.883,0.493c-2.159,0.386-4.479,1.78-5.908,3.551c-1.153,1.429-1.854,3.01-2.417,5.457
	c-0.08,0.353-0.166,4.046-0.203,6.443l-0.013,0.737c-0.084,5.376-0.084,5.376-0.847,6.316l-0.114,0.143
	c-0.731,0.911-2.628,1.546-4.609,1.546c-1.021,0-2.754-0.43-3.254-0.739c-0.744-0.461-1.534-1.277-1.654-1.605
	c-0.146-0.592-0.201-8.383-0.219-10.943l-0.077-11.039l-15.658-0.079l0.002,11.733c0.002,5.571,0.055,11.685,0.14,12.275
	c0.167,1.15,0.779,3.221,1.264,4.261c0.907,1.953,2.984,4.334,4.937,5.662c0.487,0.331,0.967,0.687,1.091,0.8
	c0.211,0.188,0.571,0.379,0.844,0.441c0.14,0.031,0.526,0.197,0.834,0.373c0.703,0.4,2.613,1.184,3.652,1.494l0.378,0.115v14.826
	h15.879v-14.783l0.899-0.313c1.807-0.624,5.196-2.319,6.147-3.073c1.197-0.949,3.063-2.882,3.627-3.76
	c0.685-1.066,1.639-3.242,1.925-4.389c0.403-1.616,0.535-3.537,0.54-7.9c0.003-2.534,0.049-4.153,0.077-4.328
	c0.071-0.271,2.102-0.271,2.769-0.271c0.384,0,0.813,0.003,1.294,0.009l2.874,0.034l0.034,2.719
	c0.044,3.567,0.142,3.567,0.611,3.567c0.229,0,0.429-0.137,0.519-0.334c0.197-0.087,0.571-0.34,1.38-1.079
	c0.574-0.523,0.966-0.838,1.088-0.921c0.155-0.056,0.438-0.25,1.136-0.908c0.493-0.469,1.074-0.945,1.306-1.095
	c0.301-0.195,0.93-0.712,1.433-1.179c0.428-0.396,0.729-0.643,0.834-0.716c0.144-0.054,0.395-0.224,1.01-0.771
	c0.916-0.818,3.671-3.107,4.467-3.711c0.335-0.254,0.972-0.805,1.418-1.226l1.127-1.064L361.683,124.628z"/>
</svg>
